#include <Arduino.h>
#include "audio\scale.h"

void play_princeigor(int buzzer)
{
    // change this to make the song slower or faster
    const int tempo_princeigor = 110;

    const int melody_princeigor[] = {
        // Prince Igor - Polovtsian Dances, Borodin 
  NOTE_G4, 4, NOTE_G4, 4, NOTE_D5, -2,
  NOTE_C5, 8, NOTE_D5, 8, NOTE_AS4, 4, NOTE_A4, 8, NOTE_G4, 8,
  NOTE_A4, 8, NOTE_AS4, 8, NOTE_C5, 1,
  
  NOTE_D5, 4, NOTE_A4, 4, NOTE_G4, 8, NOTE_F4, 8,
  NOTE_D4, 4, NOTE_D4, 4, NOTE_G4, -2,
  NOTE_A4, 4, NOTE_G4, 4, NOTE_F4, 8, NOTE_E4, 8,
  
  NOTE_F4, 4, NOTE_E4, 4, NOTE_D4, 1,
  NOTE_E4, 4, NOTE_F4, 4, NOTE_A4, 4,
  NOTE_G4, 4, NOTE_G4, 4, NOTE_AS4, -2,

  NOTE_C5, 4, NOTE_AS4, 4, NOTE_A4, 8, NOTE_G4, 8,
  NOTE_A4, 4, NOTE_AS4, 4, NOTE_C5, -2,
  NOTE_CS5, 4, NOTE_C5, 4, NOTE_A4, 4,
  
  NOTE_CS5, 4, NOTE_CS4, 4, NOTE_F5, -2,
  NOTE_G5, 4, NOTE_F5, 4, NOTE_DS4, 8, NOTE_CS4, 8,
  NOTE_F5, 2, NOTE_C5, -2, 
  
  NOTE_AS4, 4, NOTE_C5, 4, NOTE_AS4, 8, NOTE_A4, 8,
  NOTE_G4, 4, NOTE_G4, 4, NOTE_AS4, 1,
  NOTE_C5, 4, NOTE_AS4, 4, NOTE_A4, 8, NOTE_G4, 8,  

  NOTE_F4, 4, NOTE_G4, 4, NOTE_A4, 1,
  NOTE_AS4, 4, NOTE_A4, 4, NOTE_F4, 4,
  NOTE_G4, 4, NOTE_G4, 4, NOTE_D5, -2,

  NOTE_C5, 4, NOTE_AS4, 4, NOTE_A4, 8, NOTE_G4, 8,
  NOTE_A4,-1, NOTE_A4,-1, REST,2,
  NOTE_G4, 4, NOTE_G4, 4, NOTE_D5, -2,
  
  NOTE_C5, 8, NOTE_D5, 8, NOTE_AS4, 4, NOTE_A4, 8, NOTE_G4, 8,
  NOTE_A4, 8, NOTE_AS4, 8, NOTE_C5, 1,
  NOTE_C5, 8, NOTE_D5, 8, NOTE_C5, 4, NOTE_AS4, 8, NOTE_A4, 8,
  
  
  NOTE_D4, 4, NOTE_D4, 4, NOTE_G4, -2,
  NOTE_G4, 8, NOTE_A4, 8, NOTE_G4, 4, NOTE_F4, 8, NOTE_E4, 8,
  NOTE_F4, 8, NOTE_E4, 8, NOTE_D4, -2,//1
  
  REST,4, NOTE_C5, 8, NOTE_D5, 8, NOTE_C5, 4, NOTE_AS4, 8, NOTE_A4, 8,
  NOTE_G4, 4, NOTE_G4, 4, NOTE_B4, -2,
  NOTE_C5, 4, NOTE_AS4, 4, NOTE_A4, 8, NOTE_G4, 8,  

  NOTE_A4, 4, NOTE_G4, 4, NOTE_F4, -1, REST,4,
  NOTE_G4, 4, NOTE_G4, 4, NOTE_D5, -2,
  NOTE_C5, 8, NOTE_D5, 8, NOTE_AS4, 4, NOTE_A4, 8, NOTE_G4, 8,
  
  NOTE_A4, 4, NOTE_G4, 4, NOTE_F4, -2,
  NOTE_A4, 4, NOTE_G4, 4, NOTE_F4, -2,
  NOTE_A4, 4, NOTE_G4, 4, NOTE_F4, -1};

    // sizeof gives the number of bytes, each int value is composed of two bytes (16 bits)
    // there are two values per note (pitch and duration), so for each note there are four bytes
    const int notes = sizeof(melody_princeigor) / sizeof(melody_princeigor[0]) / 2;

    // this calculates the duration of a whole note in ms
    const int wholenote = (60000 * 4) / tempo_princeigor;

    int divider = 0, noteDuration = 0;
#if defined(ESP32)
    const unsigned int soundChannel = 0;
    ledcAttachPin(buzzer, soundChannel);
#endif

    // iterate over the notes of the melody.
    // Remember, the array is twice the number of notes (notes + durations)
    for (int thisNote = 0; thisNote < notes * 2; thisNote = thisNote + 2)
    {

        // calculates the duration of each note
        divider = melody_princeigor[thisNote + 1];
        if (divider > 0)
        {
            // regular note, just proceed
            noteDuration = (wholenote) / divider;
        }
        else if (divider < 0)
        {
            // dotted notes are represented with negative durations!!
            noteDuration = (wholenote) / abs(divider);
            noteDuration *= 1.5; // increases the duration in half for dotted notes
        }

        // we only play the note for 90% of the duration, leaving 10% as a pause
#if defined(ESP32)
        ledcWriteTone(soundChannel, melody_princeigor[thisNote]);
#else
        tone(buzzer, melody_princeigor[thisNote], noteDuration * 0.9);
#endif

        // Wait for the specief duration before playing the next note.
        delay(noteDuration);

        // stop the waveform generation before the next note.
#if defined(ESP32)
        ledcWriteTone(soundChannel, 0);
#else
        noTone(buzzer);
#endif
    }
#if defined(ESP32)
    ledcDetachPin(buzzer);
#endif
}